<?xml version="1.0" encoding="UTF-8"?>
<!DOCTYPE svg PUBLIC "-//W3C//DTD SVG 1.1//EN" "http://www.w3.org/Graphics/SVG/1.1/DTD/svg11.dtd">
<!-- Creator: CorelDRAW 2021 (64-Bit) -->
<svg xmlns="http://www.w3.org/2000/svg" xml:space="preserve" width="86.6986mm" height="86.6986mm" version="1.1" style="shape-rendering:geometricPrecision; text-rendering:geometricPrecision; image-rendering:optimizeQuality; fill-rule:evenodd; clip-rule:evenodd"
viewBox="0 0 3522.99 3522.99"
 xmlns:xlink="http://www.w3.org/1999/xlink"
 xmlns:xodm="http://www.corel.com/coreldraw/odm/2003">
 <defs>
  <style type="text/css">
   <![CDATA[
    .fil0 {fill:#7a7c7e}
   ]]>
  </style>
 </defs>
 <g id="Capa_x0020_1">
  <metadata id="CorelCorpID_0Corel-Layer"/>
  <g id="_2315016628144">
   <path class="fil0" d="M1541.31 206.43c-57.68,0 -246.15,11.67 -279.63,-9.36 -7.15,-4.49 -29.02,-23.97 -37.75,-31.05 -189.55,-153.77 -494.55,-7.66 -494.55,226.2l0 41.29c0,143.95 145.05,289 289,289 213.48,0 211.22,-103.21 275.23,-103.21l261.47 0 0 550.46c0,33.43 -108.13,41.16 -201.35,135.81 -13.22,13.42 -46.76,49.97 -67,49.97l-667.44 0 0 825.7 667.44 0c12.84,0 73.46,57.69 87.86,70.4 23.96,21.15 69.31,49.63 100.13,65 190.31,94.94 378.38,96.93 568.96,2.26 30.57,-15.19 75.18,-42.02 101.13,-64.01l44.95 -37.61c13.04,-11.71 26.72,-36.05 46.52,-36.05 141.98,0 318.31,-25.48 397.13,63.89 12.69,14.4 20.57,39.32 43.24,39.32l846.34 0 0 -97.78c-0.91,-104.63 -8.1,-188.79 -54.04,-302.31 -92.42,-228.34 -246.44,-382.36 -474.78,-474.78 -209.28,-84.7 -492.17,-47.93 -737.77,-53.53 -52.15,-1.19 -59.81,-25.74 -97.45,-60.81 -89.62,-83.53 -191.03,-93.71 -191.03,-125.48l0 -550.46 261.47 0c66.43,0 62.54,103.21 275.23,103.21 143.95,0 289,-145.05 289,-289l0 -41.29c0,-143.95 -145.05,-289 -289,-289 -151.92,0 -164.1,34.91 -239.29,90.99 -37.45,27.93 -218.92,12.22 -283.65,12.22 -9.44,-40.51 -36.2,-106.87 -63.5,-136.05 -37.56,-40.14 -85.32,-64.29 -134.44,-70.38l-49.1 0c-83.77,10.52 -162.91,75.84 -193.34,206.43z"/>
   <path class="fil0" d="M-0 715.61l0 2098.65c0,70.64 67.99,89.45 123.86,89.45 143.95,0 289,-145.05 289,-289l0 -1699.57c0,-143.95 -145.05,-289 -289,-289 -55.87,0 -123.86,18.82 -123.86,89.45z"/>
   <path class="fil0" d="M2697.29 2711.05c0,42.19 47.26,89.45 89.45,89.45l646.8 0c42.19,0 89.45,-47.26 89.45,-89.45l0 -220.19 -825.7 0 0 220.19z"/>
   <path class="fil0" d="M2903.71 3295.92l0 41.29c0,86.82 98.96,185.78 185.78,185.78l41.29 0c86.82,0 185.78,-98.96 185.78,-185.78 0,-106.05 -21.67,-110.71 -77.81,-211.18 -32.52,-58.19 -53.91,-119.1 -128.61,-119.1 -77.36,0 -98.94,67.8 -129.42,118.29 -24.13,39.97 -77.01,124.24 -77.01,170.7z"/>
  </g>
 </g>
</svg>
