<?xml version="1.0" encoding="UTF-8"?>
<!DOCTYPE svg PUBLIC "-//W3C//DTD SVG 1.1//EN" "http://www.w3.org/Graphics/SVG/1.1/DTD/svg11.dtd">
<!-- Creator: CorelDRAW 2021 (64-Bit) -->
<svg xmlns="http://www.w3.org/2000/svg" xml:space="preserve" width="6.6784mm" height="7.7031mm" version="1.1" style="shape-rendering:geometricPrecision; text-rendering:geometricPrecision; image-rendering:optimizeQuality; fill-rule:evenodd; clip-rule:evenodd"
viewBox="0 0 13.62 15.71"
 xmlns:xlink="http://www.w3.org/1999/xlink"
 xmlns:xodm="http://www.corel.com/coreldraw/odm/2003">
 <defs>
  <style type="text/css">
   <![CDATA[
    .fil0 {fill:#07b6f8}
   ]]>
  </style>
 </defs>
 <g id="Capa_x0020_1">
  <metadata id="CorelCorpID_0Corel-Layer"/>
  <g id="_1703902800656">
   <path class="fil0" d="M5.36 13.62l2.91 0c-0.11,0.48 -0.75,1.01 -1.31,1.01 -0.46,0 -0.72,-0.01 -1.12,-0.32 -0.18,-0.14 -0.29,-0.28 -0.4,-0.48 -0.01,-0.02 -0.04,-0.08 -0.04,-0.09 -0.02,-0.05 -0.03,-0.1 -0.04,-0.12zm0.95 -12.02c0,-0.55 0.56,-0.69 0.86,-0.4 0.32,0.31 0.13,0.89 -0.37,0.89 -0.26,0 -0.49,-0.21 -0.49,-0.49zm-1.08 -0.03c0,0.28 0.09,0.55 0.2,0.75 -0.42,0.04 -1.24,0.56 -1.59,0.83 -0.75,0.58 0.04,1.32 0.56,0.92 0.33,-0.25 0.41,-0.35 0.8,-0.54 1.19,-0.61 2.73,-0.44 3.79,0.36 0.15,0.12 0.36,0.29 0.48,0.43 0.31,0.39 0.46,0.5 0.71,1.09 0.39,0.93 0.27,2.14 0.27,3.28 0,0.93 -0.09,0.92 0.23,1.57 0.2,0.4 0.39,0.79 0.6,1.2 0.08,0.17 0.25,0.42 0.24,0.63 -0.01,0.22 -0.21,0.46 -0.45,0.46l-8.49 0c-0.28,0 -0.49,-0.22 -0.49,-0.49 0,-0.17 0.78,-1.66 0.95,-1.99 0.16,-0.31 0.13,-0.44 0.13,-0.88 0,-0.45 -0.03,-2.59 0.03,-2.94 0.07,-0.42 0.2,-0.59 0.2,-0.91 0,-0.36 -0.77,-0.88 -1.09,0.09 -0.1,0.3 -0.14,0.57 -0.19,0.92 -0.1,0.79 0.05,3.04 -0.06,3.31 -0.29,0.71 -1.01,1.66 -1.01,2.42 0,0.83 0.73,1.57 1.57,1.57l1.63 0c0.01,0.45 0.49,1.14 0.84,1.44 0.97,0.86 2.48,0.86 3.44,0 0.36,-0.32 0.8,-0.97 0.84,-1.44 1.2,0 2.24,0.23 2.91,-0.69 0.6,-0.83 0.15,-1.56 -0.16,-2.19 -0.81,-1.63 -0.59,-0.85 -0.59,-2.94 0,-1.44 0.02,-2.38 -0.8,-3.61 -0.33,-0.49 -0.85,-1.01 -1.32,-1.32 -0.22,-0.14 -0.91,-0.53 -1.21,-0.55 0.04,-0.17 0.2,-0.36 0.2,-0.75 0,-0.82 -0.71,-1.57 -1.54,-1.57 -0.9,0 -1.63,0.63 -1.63,1.57z"/>
   <path class="fil0" d="M9.41 1.34c0,0.53 0.54,0.57 1.22,1.2 0.24,0.23 0.36,0.3 0.6,0.61 0.19,0.24 0.35,0.45 0.5,0.71 0.48,0.8 0.82,1.79 0.82,2.81 -0,0.99 1.08,0.76 1.08,0.19 0,-1.94 -0.74,-3.5 -1.9,-4.76 -0.1,-0.11 -0.18,-0.19 -0.31,-0.28l-0.64 -0.53c-0.38,-0.28 -0.82,-0.63 -1.19,-0.3 -0.07,0.06 -0.17,0.24 -0.17,0.35z"/>
   <path class="fil0" d="M-0 6.63c0,0.32 0.05,0.72 0.52,0.72 0.47,0 0.51,-0.41 0.55,-0.66 0.05,-0.41 -0.01,-0.48 0.12,-1.09 0.26,-1.18 0.67,-1.77 1.33,-2.59 0.28,-0.35 0.76,-0.74 1.13,-0.99 0.23,-0.15 0.56,-0.28 0.56,-0.65 0,-0.28 -0.31,-0.78 -0.97,-0.35 -0.46,0.29 -0.59,0.4 -1.01,0.75 -0.77,0.65 -1.56,1.92 -1.87,2.84 -0.19,0.57 -0.36,1.27 -0.36,2.02z"/>
  </g>
 </g>
</svg>
