<?xml version="1.0" encoding="UTF-8"?>
<!DOCTYPE svg PUBLIC "-//W3C//DTD SVG 1.1//EN" "http://www.w3.org/Graphics/SVG/1.1/DTD/svg11.dtd">
<!-- Creator: CorelDRAW 2021 (64-Bit) -->
<svg xmlns="http://www.w3.org/2000/svg" xml:space="preserve" width="8.9165mm" height="8.2178mm" version="1.1" style="shape-rendering:geometricPrecision; text-rendering:geometricPrecision; image-rendering:optimizeQuality; fill-rule:evenodd; clip-rule:evenodd"
viewBox="0 0 28.63 28.64"
 xmlns:xlink="http://www.w3.org/1999/xlink"
 xmlns:xodm="http://www.corel.com/coreldraw/odm/2003">
 <defs>
  <style type="text/css">
   <![CDATA[
    .str0 {stroke:#07b6f8;stroke-width:0.54;stroke-miterlimit:22.9256}
    .fil0 {fill:#07b6f8}
   ]]>
  </style>
 </defs>
 <g id="Capa_x0020_1">
  <metadata id="CorelCorpID_0Corel-Layer"/>
  <g id="_1704105103856">
   <path class="fil0 str0" d="M22.45 0.27l0.42 0c1.34,0.05 2.95,0.55 4.19,2.01 0.31,0.36 0.57,0.77 0.77,1.21 0.32,0.69 0.5,1.38 0.53,2.06l0 0.53c-0.04,0.72 -0.22,1.44 -0.52,2.18 -0.24,0.58 -0.7,1.17 -1.11,1.58 -1.81,1.8 -4.65,2.16 -6.86,0.85 -0.7,-0.41 -1.33,-1.03 -1.77,-1.68l-4.35 2.34c-0.89,0.45 -0.56,0.27 -0.27,1.45 0.24,0.95 0.26,2.16 -0.01,3.1 -0.12,0.4 -0.2,0.78 -0.37,1.12 0.41,0.1 2.03,1.06 2.52,1.32 0.83,0.43 1.65,0.88 2.47,1.32 0.23,-0.34 0.51,-0.65 0.81,-0.95 1.36,-1.37 3.57,-1.82 5.45,-1.3 1.23,0.34 0.86,1.13 0.36,1.23 -0.04,0.01 -0.1,0.01 -0.16,-0l-0.03 -0.01 -0.03 -0.01 -0.03 -0.01 -0.03 -0.01 -0.02 -0.01 -0 -0 -0.03 -0.01 -0.03 -0.01 -0.03 -0.01 -0.05 -0.02 -0.03 -0.01 -0.03 -0.01 -0.02 -0.01 -0.01 -0 -0.03 -0.01 -0.03 -0.01 -0.03 -0.01 -0.02 -0.01 -0.01 -0 -0.03 -0.01 -0.03 -0.01 -0.03 -0.01 -0.02 -0.01 -0.01 -0 -0.03 -0.01 -0.03 -0.01 -0.03 -0.01 -0.02 -0 -0.01 -0 -0.03 -0.01 -0.06 -0.01 -0 0 -0.01 -0 -0.01 -0 -0.03 -0.01 -0.03 -0.01 -0.03 -0.01 -0.01 -0 -0.02 -0 -0.03 -0.01 -0.03 -0.01 -0.03 -0.01 -0.01 -0 -0.02 -0 -0.03 -0 -0.03 -0 -0.03 -0 -0.01 -0 -0.02 -0 -0.06 -0.01 -0.03 -0 -0.01 -0 -0.02 -0 -0.06 -0.01 -0.03 -0 -0.01 -0 -0.02 -0 -0.03 -0 -0.03 -0 -0.03 -0 -0.01 -0 -0.02 -0 -0.03 -0 -0.03 -0 -0.03 -0 -0 -0 -0.03 -0 -0.03 -0 -0.06 -0 -0 0 -0.03 -0 -0.09 -0c-2.51,0 -4.54,2.03 -4.54,4.54 0,2.51 2.03,4.54 4.54,4.54 2.51,0 4.54,-2.03 4.54,-4.54l-0 -0.09 -0 -0.03 0 -0 -0 -0.06 -0 -0.03 -0 -0.03 -0 -0 -0 -0.03 -0 -0.03 -0 -0.03 -0 -0.02 -0 -0.01 -0 -0.01 -0.01 -0.08 -0 -0.02 -0 -0.01 -0.01 -0.11 -0 -0.01 -0.01 -0.1 -0 -0.01 -0.01 -0.09 -0 -0.01 -0 -0.01 -0.02 -0.09 -0 -0.01 -0 -0.02 -0.02 -0.08 -0 -0.01 -0.02 -0.1 -0 -0.01 -0.03 -0.1 -0 -0.01 -0.01 -0.02 -0.01 -0.03 -0.01 -0.03 -0.01 -0.03 -0 -0 -0.01 -0.02 -0.01 -0.03 -0.01 -0.03 -0.01 -0.03 -0 -0 -0.01 -0.03 -0.01 -0.03 -0.01 -0.03 -0.01 -0.03 -0 -0 -0.01 -0.03 -0.01 -0.03 -0.01 -0.03 -0.01 -0.02 -0 -0 -0.01 -0.03 -0.01 -0.03 -0.01 -0.03 -0.02 -0.05 -0 -0c-0.04,-0.35 0.06,-0.64 0.56,-0.64 0.83,0 0.88,2.07 0.88,2.74 0,1.41 -0.71,2.71 -1.66,3.66 -1.04,1.05 -2.36,1.6 -4.16,1.6 -2.82,0 -5.38,-2.56 -5.38,-5.38 0,-1.39 0.11,-1.18 0.38,-2.36 -0.23,-0.12 -0.39,-0.23 -0.64,-0.35 -0.74,-0.37 -3.86,-2.17 -4.35,-2.29 -0.33,0.49 -0.53,0.73 -0.95,1.14 -0.36,0.36 -0.71,0.64 -1.17,0.92 -1.13,0.68 -2.24,0.96 -3.76,0.96 -2.15,0 -4.04,-1.22 -5.24,-2.88 -1.17,-1.61 -1.49,-4.02 -0.84,-5.95 0.1,-0.29 0.2,-0.53 0.34,-0.81 0.44,-0.88 1.1,-0.48 1.16,0.01 0,0.04 0,0.09 -0,0.13 -0.49,0.83 -0.77,1.8 -0.77,2.83 0,3.09 2.51,5.6 5.6,5.6 1.59,0 3.02,-0.66 4.04,-1.72 0.36,-0.38 0.67,-0.81 0.92,-1.27l0.01 0.01c0.01,-0.03 0.01,-0.06 0.02,-0.08 0.07,-0.14 0.14,-0.29 0.2,-0.43l0.01 -0.01 0.01 -0.04 0 -0.01c0.1,-0.25 0.18,-0.51 0.24,-0.77l0 -0.01 0.02 -0.07c0.08,-0.38 0.13,-0.78 0.13,-1.19 0,-0.69 -0.12,-1.34 -0.35,-1.95 -0.33,-0.94 -0.9,-1.78 -1.67,-2.38 -1.06,-0.82 -2.09,-1.16 -3,-1.24l-0.01 -0 -0.06 -0c-0.17,-0.02 -0.34,-0.02 -0.52,-0.02 -0.97,0 -1.89,0.25 -2.68,0.68 -0.07,0.03 -0.12,0.04 -0.15,0.04 -0.31,0.02 -0.59,-0.24 -0.59,-0.58 0,-0.51 0.92,-0.8 1.32,-0.93 0.71,-0.23 1.59,-0.34 2.41,-0.34 2.21,0 4.17,1.3 5.32,3.02 0.28,-0.06 2.7,-1.37 3.18,-1.65 0.58,-0.34 1.25,-0.61 1.81,-0.99 -0.02,-0.27 -0.17,-0.57 -0.24,-0.86 -0.22,-0.89 -0.18,-1.97 0.06,-2.84 0.14,-0.52 0.45,-1.07 1.01,-0.75 0.2,0.12 0.25,0.26 0.23,0.45 -0.25,0.56 -0.39,1.19 -0.39,1.85 0,2.51 2.03,4.54 4.54,4.54 2.51,0 4.54,-2.03 4.54,-4.54 0,-2.51 -2.03,-4.54 -4.54,-4.54 -0.66,0 -1.29,0.14 -1.85,0.39 -0.33,0.02 -0.55,-0.12 -0.55,-0.68 0,-0.32 0.89,-0.73 2.1,-0.77z"/>
   <path class="fil0 str0" d="M2.52 10.53c0.99,0 0.67,-1.1 0.22,-1.1 -0.32,0 -0.7,0.07 -0.68,0.54 0.01,0.35 0.32,0.56 0.46,0.56z"/>
   <path class="fil0 str0" d="M25.78 19.09c0,0.92 1.1,0.84 1.1,0.05 0,-0.72 -1.1,-0.58 -1.1,-0.05z"/>
   <path class="fil0 str0" d="M18.65 2.25c0,0.83 1.1,0.81 1.1,-0.05 0,-0.53 -1.1,-0.66 -1.1,0.05z"/>
  </g>
 </g>
</svg>
