<?xml version="1.0" encoding="UTF-8"?>
<!DOCTYPE svg PUBLIC "-//W3C//DTD SVG 1.1//EN" "http://www.w3.org/Graphics/SVG/1.1/DTD/svg11.dtd">
<!-- Creator: CorelDRAW 2021 (64-Bit) -->
<svg xmlns="http://www.w3.org/2000/svg" xml:space="preserve" width="5.411mm" height="8.6572mm" version="1.1" style="shape-rendering:geometricPrecision; text-rendering:geometricPrecision; image-rendering:optimizeQuality; fill-rule:evenodd; clip-rule:evenodd"
viewBox="0 0 8.41 13.46"
 xmlns:xlink="http://www.w3.org/1999/xlink"
 xmlns:xodm="http://www.corel.com/coreldraw/odm/2003">
 <defs>
  <style type="text/css">
   <![CDATA[
    .fil0 {fill:#FF6600}
   ]]>
  </style>
 </defs>
 <g id="Capa_x0020_1">
  <metadata id="CorelCorpID_0Corel-Layer"/>
  <g id="_2315019270640">
   <path class="fil0" d="M4.21 4.52c0.16,0.1 0.73,0.88 0.87,1.07 0.29,0.38 0.53,0.8 0.71,1.24 0.38,0.92 -0.4,2.13 -1.58,2.13 -1.2,0 -1.94,-1.24 -1.59,-2.11 0.18,-0.44 0.42,-0.85 0.7,-1.24 0.14,-0.19 0.73,-0.99 0.88,-1.09zm-0.06 -4.52l0.12 0c0.01,0 0.02,0 0.03,0.01 0.16,0.05 0.2,0.25 0.25,0.38l0.63 1.89c0.09,0.28 0.19,0.69 0.31,0.95 0.4,-0.2 0.81,-0.4 1.21,-0.6 0.32,-0.17 0.37,-0.09 0.57,0.17 0.13,0.18 0.24,0.35 0.35,0.54 0.49,0.85 0.79,1.81 0.79,2.79 0,0.46 -0.19,1.02 -0.39,1.43 -0.1,0.21 -0.21,0.36 -0.35,0.54 -0.15,0.19 -0.28,0.29 -0.44,0.45 -0.27,0.27 -0.77,0.52 -1.13,0.66 -0.85,0.35 -2.22,0.43 -3.14,0.2 -0.53,-0.13 -0.81,-0.25 -1.29,-0.5 -0.73,-0.39 -1.35,-1.21 -1.56,-2.01 -0.27,-0.99 -0.07,-2.07 0.34,-2.99 0.1,-0.22 0.18,-0.39 0.3,-0.59 0.14,-0.23 0.25,-0.41 0.54,-0.23 0.37,0.23 0.73,0.46 1.09,0.7 0.27,-0.58 0.5,-1.2 0.76,-1.79 0.13,-0.29 0.26,-0.59 0.38,-0.88 0.12,-0.3 0.27,-0.58 0.38,-0.88 0.04,-0.12 0.12,-0.21 0.23,-0.23z"/>
   <path class="fil0" d="M0.26 12.75c0,0.44 0.16,0.71 0.63,0.71l6.62 0c0.47,0 0.63,-0.27 0.63,-0.71l0 -2.1 -1.16 0 0.01 1.68 -2.21 0 0 -1.68 -1.16 0 0 1.68 -2.21 0 0 -1.68 -1.16 0 0 2.1z"/>
  </g>
 </g>
</svg>
