<?xml version="1.0" encoding="UTF-8"?>
<!DOCTYPE svg PUBLIC "-//W3C//DTD SVG 1.1//EN" "http://www.w3.org/Graphics/SVG/1.1/DTD/svg11.dtd">
<!-- Creator: CorelDRAW 2021 (64-Bit) -->
<svg xmlns="http://www.w3.org/2000/svg" xml:space="preserve" width="8.6132mm" height="8.6149mm" version="1.1" style="shape-rendering:geometricPrecision; text-rendering:geometricPrecision; image-rendering:optimizeQuality; fill-rule:evenodd; clip-rule:evenodd"
viewBox="0 0 21.12 21.12"
 xmlns:xlink="http://www.w3.org/1999/xlink"
 xmlns:xodm="http://www.corel.com/coreldraw/odm/2003">
 <defs>
  <style type="text/css">
   <![CDATA[
    .fil0 {fill:#8F2A29}
   ]]>
  </style>
 </defs>
 <g id="Capa_x0020_1">
  <metadata id="CorelCorpID_0Corel-Layer"/>
  <path class="fil0" d="M17.82 14.92c-0.35,0.53 -0.81,1.2 -1.28,1.62 -0.09,0.08 -1.54,1.36 -1.52,1.08 0,-0.03 0.37,-0.87 0.41,-0.98 0.66,-1.64 0.24,-1.81 1.1,-1.8 0.33,0 1.02,-0.07 1.29,0.08zm-4.02 0c-0.17,0.69 -0.5,1.52 -0.85,2.13 -0.08,0.14 -1.16,1.82 -1.29,1.39 -0.07,-0.25 -0.02,-2.5 -0.02,-2.94 -0,-0.79 0.07,-0.66 0.83,-0.66 0.33,0 1.06,-0.07 1.33,0.08zm-6.51 -0.08c2.39,0 2.2,-0.19 2.2,0.75 -0,0.34 0.06,2.77 -0.05,2.88 -0.2,0.2 -1.17,-1.34 -1.27,-1.52 -0.4,-0.71 -0.6,-1.35 -0.88,-2.11zm-4.02 0c2.18,0 1.81,-0.14 2.11,0.79 0.12,0.37 0.23,0.72 0.37,1.08 0.04,0.1 0.39,0.9 0.36,0.94 -0.12,0.12 -1.43,-1.03 -1.58,-1.17 -0.47,-0.47 -0.91,-1.08 -1.26,-1.65zm11.07 -3.11c-0.05,0.83 0.14,0.96 -0.79,0.95 -2.18,-0 -1.91,0.33 -1.91,-1.58 0,-0.58 0,-1.16 0,-1.74 0,-0.92 -0.11,-0.91 0.83,-0.91 0.29,0 1.51,-0.05 1.69,0.05 0.37,0.22 0.21,2.75 0.18,3.22zm-7.59 -0.17c0,-3.57 -0.23,-3.11 1.62,-3.11 1.3,0 1.12,-0.28 1.12,1.95 0,2.46 0.19,2.28 -0.79,2.28 -1.16,-0 -1.83,0.21 -1.89,-0.39 -0.02,-0.2 -0.06,-0.54 -0.06,-0.73zm9.66 -3.03c0.5,-0.15 1.13,-0.08 1.66,-0.08 0.79,-0 0.74,0.12 0.87,0.88 0.12,0.7 0.15,2.53 -0.16,3.15 -0.16,0.33 -1.2,0.2 -1.54,0.2 -0.99,0 -0.76,0.03 -0.75,-0.83 0.02,-1.1 0.09,-2.22 -0.08,-3.32zm-11.73 0.08c0.03,0.21 -0.07,1.36 -0.08,1.66 -0.02,0.52 0.02,1.16 0.04,1.69 0.04,0.87 0.07,0.71 -0.88,0.71 -0.39,0 -1.3,0.16 -1.45,-0.3 -0.27,-0.86 -0.27,-2.29 -0.11,-3.16 0.16,-0.81 0.15,-0.77 0.97,-0.77 0.23,0 1.45,-0.1 1.49,0.17zm6.97 -2.36c0,-0.98 0,-1.96 0,-2.94 -0,-0.55 -0.1,-0.91 0.4,-0.4 0.25,0.25 0.46,0.53 0.65,0.84 0.4,0.64 0.7,1.28 0.95,2 0.23,0.66 0.14,0.56 -0.55,0.55 -0.48,-0 -0.97,0.03 -1.45,-0.04zm-4.35 0c0.29,-0.74 0.47,-1.41 0.86,-2.12 0.09,-0.16 1.12,-1.77 1.3,-1.48 0.08,0.12 0.03,2.56 0.03,2.9 0,0.8 0.05,0.75 -0.75,0.75 -0.48,-0 -0.97,0.03 -1.45,-0.04zm-1.2 -2.69c-0.44,0.96 -0.49,0.88 -0.85,2.05 -0.18,0.6 -0.09,0.69 -0.77,0.68 -0.18,-0 -1.2,0.1 -1.1,-0.16 0.39,-0.99 2.96,-3.11 2.72,-2.58zm8.87 -0.12c1.11,0.38 2.93,2.6 2.81,2.8 -0.07,0.12 -1.13,0.06 -1.31,0.06 -0.62,0 -0.52,-0.24 -0.69,-0.76 -0.23,-0.74 -0.45,-1.4 -0.8,-2.1zm-14.95 7.09c0,5.95 4.69,10.6 10.64,10.6 5.8,0 10.48,-4.71 10.48,-10.64 0,-2.8 -1.13,-5.45 -3.11,-7.42 -2.07,-2.06 -4.55,-3 -7.46,-3.07 -5.78,-0.13 -10.56,4.82 -10.56,10.52z"/>
 </g>
</svg>
