<?xml version="1.0" encoding="UTF-8"?>
<!DOCTYPE svg PUBLIC "-//W3C//DTD SVG 1.1//EN" "http://www.w3.org/Graphics/SVG/1.1/DTD/svg11.dtd">
<!-- Creator: CorelDRAW 2021 (64-Bit) -->
<svg xmlns="http://www.w3.org/2000/svg" xml:space="preserve" width="8.5702mm" height="8.572mm" version="1.1" style="shape-rendering:geometricPrecision; text-rendering:geometricPrecision; image-rendering:optimizeQuality; fill-rule:evenodd; clip-rule:evenodd"
viewBox="0 0 23.91 23.92"
 xmlns:xlink="http://www.w3.org/1999/xlink"
 xmlns:xodm="http://www.corel.com/coreldraw/odm/2003">
 <defs>
  <style type="text/css">
   <![CDATA[
    .fil0 {fill:#7a7c7e}
   ]]>
  </style>
 </defs>
 <g id="Capa_x0020_1">
  <metadata id="CorelCorpID_0Corel-Layer"/>
  <path class="fil0" d="M20.17 16.89c-0.4,0.6 -0.92,1.35 -1.45,1.84 -0.1,0.09 -1.74,1.54 -1.72,1.22 0,-0.03 0.42,-0.98 0.47,-1.11 0.74,-1.85 0.28,-2.04 1.25,-2.04 0.37,0 1.16,-0.08 1.46,0.09zm-4.55 0c-0.2,0.78 -0.57,1.72 -0.96,2.42 -0.09,0.16 -1.31,2.06 -1.46,1.58 -0.08,-0.28 -0.02,-2.83 -0.02,-3.33 -0,-0.9 0.08,-0.75 0.94,-0.75 0.38,0 1.2,-0.08 1.5,0.09zm-7.37 -0.09c2.71,0 2.49,-0.21 2.49,0.84 -0,0.39 0.07,3.14 -0.06,3.26 -0.23,0.23 -1.32,-1.51 -1.44,-1.72 -0.45,-0.81 -0.68,-1.53 -0.99,-2.39zm-4.55 0c2.47,0 2.05,-0.16 2.39,0.9 0.14,0.42 0.26,0.81 0.42,1.23 0.04,0.12 0.44,1.02 0.4,1.06 -0.13,0.13 -1.62,-1.16 -1.78,-1.33 -0.54,-0.53 -1.03,-1.22 -1.42,-1.86zm12.53 -3.52c-0.06,0.94 0.16,1.08 -0.89,1.08 -2.46,-0.01 -2.16,0.38 -2.16,-1.78 0,-0.66 0,-1.31 0,-1.97 0,-1.05 -0.12,-1.03 0.94,-1.03 0.32,0 1.71,-0.06 1.91,0.06 0.42,0.25 0.24,3.11 0.2,3.65zm-8.59 -0.19c0,-4.05 -0.26,-3.52 1.83,-3.52 1.47,0 1.27,-0.31 1.27,2.21 0,2.78 0.21,2.58 -0.89,2.58 -1.32,-0 -2.07,0.24 -2.14,-0.44 -0.02,-0.23 -0.07,-0.61 -0.07,-0.82zm10.94 -3.43c0.56,-0.17 1.28,-0.09 1.88,-0.09 0.89,-0 0.83,0.14 0.98,0.99 0.14,0.79 0.17,2.86 -0.18,3.57 -0.19,0.38 -1.35,0.23 -1.74,0.23 -1.12,0 -0.87,0.04 -0.85,-0.94 0.03,-1.25 0.1,-2.52 -0.09,-3.75zm-13.28 0.09c0.04,0.24 -0.08,1.54 -0.09,1.88 -0.02,0.59 0.02,1.31 0.05,1.92 0.04,0.98 0.08,0.8 -0.99,0.8 -0.44,0 -1.48,0.18 -1.64,-0.33 -0.3,-0.97 -0.31,-2.59 -0.12,-3.58 0.18,-0.92 0.17,-0.87 1.1,-0.87 0.26,0 1.64,-0.11 1.69,0.19zm7.89 -2.68c0,-1.11 0,-2.22 0,-3.33 -0,-0.63 -0.11,-1.03 0.46,-0.46 0.29,0.29 0.53,0.61 0.74,0.95 0.46,0.73 0.79,1.45 1.07,2.26 0.26,0.75 0.16,0.63 -0.63,0.63 -0.55,-0 -1.1,0.04 -1.64,-0.05zm-4.93 0c0.33,-0.84 0.53,-1.6 0.98,-2.4 0.1,-0.19 1.27,-2 1.47,-1.68 0.09,0.14 0.04,2.89 0.04,3.29 0,0.9 0.06,0.85 -0.85,0.84 -0.55,-0 -1.1,0.04 -1.64,-0.05zm-1.36 -3.05c-0.5,1.09 -0.56,0.99 -0.96,2.33 -0.2,0.68 -0.1,0.78 -0.87,0.77 -0.21,-0 -1.36,0.11 -1.25,-0.18 0.44,-1.12 3.35,-3.52 3.08,-2.92zm10.05 -0.14c1.26,0.43 3.32,2.94 3.18,3.17 -0.08,0.13 -1.28,0.07 -1.49,0.07 -0.71,0 -0.59,-0.27 -0.78,-0.86 -0.27,-0.83 -0.52,-1.59 -0.91,-2.38zm-16.93 8.03c0,6.74 5.32,12 12.04,12 6.57,0 11.87,-5.33 11.87,-12.04 0,-3.17 -1.28,-6.17 -3.52,-8.4 -2.35,-2.34 -5.15,-3.4 -8.44,-3.47 -6.54,-0.14 -11.95,5.45 -11.95,11.91z"/>
 </g>
</svg>
