<?xml version="1.0" encoding="UTF-8"?>
<!DOCTYPE svg PUBLIC "-//W3C//DTD SVG 1.1//EN" "http://www.w3.org/Graphics/SVG/1.1/DTD/svg11.dtd">
<!-- Creator: CorelDRAW 2021 (64-Bit) -->
<svg xmlns="http://www.w3.org/2000/svg" xml:space="preserve" width="5.377mm" height="8.6236mm" version="1.1" style="shape-rendering:geometricPrecision; text-rendering:geometricPrecision; image-rendering:optimizeQuality; fill-rule:evenodd; clip-rule:evenodd"
viewBox="0 0 8.31 13.32"
 xmlns:xlink="http://www.w3.org/1999/xlink"
 xmlns:xodm="http://www.corel.com/coreldraw/odm/2003">
 <defs>
  <style type="text/css">
   <![CDATA[
    .fil0 {fill:#FFCC00}
   ]]>
  </style>
 </defs>
 <g id="Capa_x0020_1">
  <metadata id="CorelCorpID_0Corel-Layer"/>
  <path class="fil0" d="M-0 8.02c0,0.17 0.06,0.31 0.26,0.31l3.61 0 -0.48 4.57c-0.03,0.21 0.01,0.42 0.29,0.42 0.24,0 0.54,-0.69 0.66,-0.91l2.13 -3.8c0.4,-0.7 0.88,-1.62 1.28,-2.28 0.05,-0.09 0.09,-0.16 0.14,-0.25l0.28 -0.5c0.08,-0.15 0.13,-0.16 0.13,-0.34 0,-0.15 -0.11,-0.26 -0.26,-0.26l-3.66 0c0,-0.15 0.05,-0.43 0.07,-0.58 0.03,-0.2 0.05,-0.41 0.08,-0.6 0.06,-0.4 0.1,-0.8 0.15,-1.18 0.06,-0.4 0.11,-0.8 0.16,-1.18 0.04,-0.27 0.14,-0.97 0.14,-1.19 0,-0.25 -0.38,-0.38 -0.53,-0.11l-1 1.76c-0.46,0.77 -0.98,1.73 -1.44,2.53l-1.74 3.04c-0.06,0.11 -0.27,0.44 -0.27,0.54z"/>
 </g>
</svg>
