<?xml version="1.0" encoding="UTF-8"?>
<!DOCTYPE svg PUBLIC "-//W3C//DTD SVG 1.1//EN" "http://www.w3.org/Graphics/SVG/1.1/DTD/svg11.dtd">
<!-- Creator: CorelDRAW 2021 (64-Bit) -->
<svg xmlns="http://www.w3.org/2000/svg" xml:space="preserve" width="5.3502mm" height="8.5807mm" version="1.1" style="shape-rendering:geometricPrecision; text-rendering:geometricPrecision; image-rendering:optimizeQuality; fill-rule:evenodd; clip-rule:evenodd"
viewBox="0 0 9.42 15.1"
 xmlns:xlink="http://www.w3.org/1999/xlink"
 xmlns:xodm="http://www.corel.com/coreldraw/odm/2003">
 <defs>
  <style type="text/css">
   <![CDATA[
    .fil0 {fill:#7a7c7e}
   ]]>
  </style>
 </defs>
 <g id="Capa_x0020_1">
  <metadata id="CorelCorpID_0Corel-Layer"/>
  <path class="fil0" d="M-0 9.09c0,0.19 0.07,0.36 0.3,0.36l4.09 0 -0.54 5.18c-0.03,0.24 0.01,0.48 0.33,0.48 0.27,0 0.61,-0.78 0.75,-1.03l2.42 -4.3c0.46,-0.79 1,-1.84 1.45,-2.58 0.06,-0.1 0.1,-0.19 0.16,-0.28l0.32 -0.57c0.09,-0.17 0.15,-0.18 0.15,-0.38 0,-0.17 -0.13,-0.3 -0.3,-0.3l-4.15 0c0,-0.17 0.06,-0.49 0.08,-0.66 0.03,-0.23 0.06,-0.47 0.09,-0.68 0.06,-0.45 0.11,-0.91 0.17,-1.34 0.07,-0.45 0.12,-0.91 0.18,-1.33 0.04,-0.31 0.16,-1.1 0.16,-1.35 0,-0.29 -0.43,-0.43 -0.6,-0.13l-1.14 2c-0.52,0.87 -1.11,1.96 -1.64,2.87l-1.97 3.45c-0.07,0.12 -0.31,0.5 -0.31,0.61z"/>
 </g>
</svg>
