<?xml version="1.0" encoding="UTF-8"?>
<!DOCTYPE svg PUBLIC "-//W3C//DTD SVG 1.1//EN" "http://www.w3.org/Graphics/SVG/1.1/DTD/svg11.dtd">
<!-- Creator: CorelDRAW 2021 (64-Bit) -->
<svg xmlns="http://www.w3.org/2000/svg" xml:space="preserve" width="6.3858mm" height="9.0405mm" version="1.1" style="shape-rendering:geometricPrecision; text-rendering:geometricPrecision; image-rendering:optimizeQuality; fill-rule:evenodd; clip-rule:evenodd"
viewBox="0 0 13.37 18.93"
 xmlns:xlink="http://www.w3.org/1999/xlink"
 xmlns:xodm="http://www.corel.com/coreldraw/odm/2003">
 <defs>
  <style type="text/css">
   <![CDATA[
    .str1 {stroke:#fff;stroke-width:0.35;stroke-miterlimit:22.9256}
    .str0 {stroke:#fff;stroke-width:1.06;stroke-miterlimit:22.9256}
    .str2 {stroke:#fff;stroke-width:0.16;stroke-miterlimit:22.9256}
    .fil0 {fill:none}
    .fil1 {fill:#fff}
   ]]>
  </style>
 </defs>
 <g id="Capa_x0020_1">
  <metadata id="CorelCorpID_0Corel-Layer"/>
  <g id="_1703900755248">
   <path class="fil0 str0" d="M6.49 0.53l0.4 0c0.85,0.03 1.69,0.22 2.41,0.57 0.28,0.14 0.68,0.36 0.93,0.54 0.93,0.7 1.48,1.32 2.02,2.38 0.5,0.99 0.6,1.86 0.6,2.95 0,1.84 -1.01,3.09 -1.86,4.36l-1.05 1.56c-0.07,0.11 -0.13,0.2 -0.2,0.3l-2.5 3.72c-0.07,0.1 -0.14,0.23 -0.21,0.32 -0.17,0.23 -0.48,0.25 -0.66,-0.02l-3.96 -5.88c-0.85,-1.28 -1.86,-2.52 -1.86,-4.36l0 -0.61c0,-1.05 0.52,-2.43 1.14,-3.26 0.1,-0.14 0.21,-0.29 0.33,-0.42 0.13,-0.13 0.2,-0.24 0.34,-0.38 0.09,-0.09 0.11,-0.11 0.21,-0.18 0.09,-0.07 0.11,-0.1 0.19,-0.17 0.34,-0.3 0.92,-0.65 1.33,-0.85 0.72,-0.36 1.56,-0.55 2.41,-0.57z"/>
   <path class="fil1 str1" d="M9.23 6.29c-0.11,0 -0.18,-0.01 -0.29,0.1 -0.15,0.15 -0.1,0.47 -0.17,0.76 -0.07,0.32 -0.24,0.61 -0.42,0.84 -1.21,1.55 -3.81,0.7 -3.81,-1.35 0,-1.72 1.92,-2.65 3.19,-1.87 0.07,0.04 0.23,0.15 0.31,0.15 0.48,0 0.51,-0.51 0.18,-0.72 -1.6,-0.97 -3.61,-0.29 -4.26,1.5 -0.47,1.28 0.16,2.6 0.93,3.19 0.98,0.74 2.21,0.86 3.35,0.16 0.42,-0.25 0.83,-0.73 1.04,-1.18 0.14,-0.31 0.59,-1.6 -0.06,-1.6z"/>
   <path class="fil1 str2" d="M2 18.49c0,0.17 0.17,0.36 0.36,0.36l8.66 0c0.43,0 0.43,-0.72 0,-0.72l-8.73 0c-0.13,0 -0.29,0.22 -0.29,0.36z"/>
   <path class="fil1 str1" d="M8.55 5.43c0,0.53 0.72,0.53 0.72,0 0,-0.43 -0.72,-0.43 -0.72,0z"/>
  </g>
 </g>
</svg>
