<?xml version="1.0" encoding="UTF-8"?>
<!DOCTYPE svg PUBLIC "-//W3C//DTD SVG 1.1//EN" "http://www.w3.org/Graphics/SVG/1.1/DTD/svg11.dtd">
<!-- Creator: CorelDRAW 2021 (64-Bit) -->
<svg xmlns="http://www.w3.org/2000/svg" xml:space="preserve" width="91.0066mm" height="100.488mm" version="1.1" style="shape-rendering:geometricPrecision; text-rendering:geometricPrecision; image-rendering:optimizeQuality; fill-rule:evenodd; clip-rule:evenodd"
viewBox="0 0 3487.42 3850.77"
 xmlns:xlink="http://www.w3.org/1999/xlink"
 xmlns:xodm="http://www.corel.com/coreldraw/odm/2003">
 <defs>
  <style type="text/css">
   <![CDATA[
    .fil0 {fill:black}
   ]]>
  </style>
 </defs>
 <g id="Capa_x0020_1">
  <metadata id="CorelCorpID_0Corel-Layer"/>
  <g id="_1835108117376">
   <path class="fil0" d="M352.18 2191.9c0,-224.19 48.04,-402.02 115.23,-563.36 50.04,-120.17 117.41,-222.06 195.11,-320.27 16.94,-21.41 20.75,-25.87 39.67,-46.23l77.15 -86.05c76.96,-73.96 253.71,-202.19 354.55,-246.73 255.03,-112.64 376.75,-137.48 669.95,-137.48 678.85,0 1331.41,624.46 1331.41,1357.18 0,240.41 -40.41,439.58 -128.71,618.59 -219.92,445.78 -593.74,723.41 -1094.45,795.29 -530.07,76.1 -1122.72,-221.72 -1370.95,-683.73 -112.92,-210.19 -188.95,-431.66 -188.95,-687.2zm1039.36 -1649.23l0 -120.26c0,-128.98 358.21,-175.28 565.46,-118.79 110.12,30.01 117.48,65.54 156.08,75.85l0 171.79c-184.26,-42.93 -353,-52.37 -548.43,-33.05 -51.59,5.1 -119.77,24.46 -173.11,24.46zm-274.87 94.49c-101.5,8.45 -386.07,207.76 -483.1,298.56l-81.75 72.87c-29.36,29.12 -43.66,51.43 -73.03,81.58 -217.32,223.06 -401.47,677.34 -401.47,1015.83 0,241.72 -5.03,272.19 56.59,518.93 59.8,239.44 209.09,493.5 370.82,677.13 34.83,39.54 76.65,67.02 105.16,109.59l-46.06 48.43c-1.31,1.19 -3.22,2.87 -4.52,4.07l-43.9 42c-11.24,10.92 -22.99,23.57 -34.33,34.39 -80.22,76.55 -111.7,97.39 -111.7,188.94 0,62.29 59.58,120.25 154.62,120.25 70.47,0 290.67,-238.57 309.23,-266.28 140.44,74.32 193.84,120.68 376.74,181.6 482.6,160.76 1034.54,92.78 1444.29,-181.6 121.43,81.32 203.43,266.28 335,266.28 77.53,0 137.44,-65.23 137.44,-137.44 0,-107.39 -182.72,-210.1 -249.1,-309.23 130.27,-87.23 300.5,-351.68 375.19,-500.96 49.94,-99.82 85.01,-206.74 114.43,-323.64 87.54,-347.87 59.47,-722.48 -83.4,-1050.45 -86.23,-197.94 -147.65,-280.74 -278.58,-442.97 -16.66,-20.64 -19.22,-26.27 -39.47,-46.43 -130.4,-129.74 -241.86,-224.68 -400.05,-312.9 -51.39,-28.66 -110.06,-66.19 -169.15,-79.95 0,-268.18 25.67,-356.08 -126.75,-491.71 -223.73,-199.11 -747.8,-209.69 -1023.15,-5.37 -54.67,40.57 -105.09,107.41 -123.63,185.6 -13.57,57.2 -6.34,224 -6.34,302.89z"/>
   <path class="fil0" d="M1022.17 1891.26c0,70.45 98,162.6 148.17,212.6l443.12 475.99c26.72,33.8 63.65,61.21 122.94,62.06 94.09,1.35 146.67,-96.18 202.69,-151.55 63.43,-62.7 123.14,-120.31 184.89,-184.47 19.35,-20.11 21.2,-27.66 38.54,-47.35 61.05,-69.33 302.72,-273.87 302.72,-350.1 0,-166.19 -160.54,-227.77 -287.09,-63.75 -25.41,32.94 -59.06,62.02 -88.71,91.67l-128.96 128.74c-53.51,57.86 -156.83,183.98 -225.37,229.89l-171.79 -180.39c-25.04,-32.81 -53.27,-57.76 -83.83,-87.97 -59.61,-58.94 -208.23,-246.26 -265.81,-267.16 -94.74,-34.37 -191.52,30.24 -191.52,131.8z"/>
   <path class="fil0" d="M-0 997.93c0,124 140.98,190.86 230.25,110l309.61 -334.62c48.36,-38.91 104.37,-68.39 104.37,-153.32 0,-101.11 -118.84,-186.42 -226.12,-105.86 -116.99,87.85 -418.11,373.41 -418.11,483.81z"/>
   <path class="fil0" d="M2843.2 611.39c0,90.64 49.93,114.41 100.51,157.18 93.78,79.32 176.71,167.15 252.86,262.53 36.77,46.07 71.66,112.85 153.43,112.85 73.12,0 137.43,-59.75 137.43,-146.03 0,-116.84 -250.14,-332.31 -337.1,-418.79 -14.91,-14.83 -17.18,-16.27 -32.24,-27.89 -42.92,-33.14 -130.1,-119.94 -229.96,-32.36 -16.43,14.41 -44.93,67.2 -44.93,92.51z"/>
   <path class="fil0" d="M463.84 2148.95c0,164.52 147.58,154.62 249.1,154.62 232.88,0 207.5,-283.46 25.77,-283.46l-146.02 0c-60.46,0 -128.85,68.38 -128.85,128.85z"/>
   <path class="fil0" d="M2774.48 2303.56c101.52,0 249.1,9.9 249.1,-154.62 0,-60.46 -68.38,-128.85 -128.85,-128.85l-146.02 0c-181.74,0 -207.12,283.46 25.77,283.46z"/>
   <path class="fil0" d="M1606.28 1015.1l0 163.21c0,155.16 274.87,155.16 274.87,0 0,-111.98 28.61,-298.84 -137.44,-298.84 -72.5,0 -137.44,58.01 -137.44,135.64z"/>
   <path class="fil0" d="M1606.28 3145.36l0 171.79c0,62.29 59.58,120.26 154.62,120.26 53.64,0 120.26,-66.62 120.26,-120.26l0 -171.79c0,-62.29 -59.58,-120.25 -154.62,-120.25 -53.64,0 -120.26,66.62 -120.26,120.25z"/>
  </g>
 </g>
</svg>
