<?xml version="1.0" encoding="UTF-8"?>
<!DOCTYPE svg PUBLIC "-//W3C//DTD SVG 1.1//EN" "http://www.w3.org/Graphics/SVG/1.1/DTD/svg11.dtd">
<!-- Creator: CorelDRAW 2021 (64-Bit) -->
<svg xmlns="http://www.w3.org/2000/svg" xml:space="preserve" width="6.2124mm" height="6.2104mm" version="1.1" style="shape-rendering:geometricPrecision; text-rendering:geometricPrecision; image-rendering:optimizeQuality; fill-rule:evenodd; clip-rule:evenodd"
viewBox="0 0 12.66 12.66"
 xmlns:xlink="http://www.w3.org/1999/xlink"
 xmlns:xodm="http://www.corel.com/coreldraw/odm/2003">
 <defs>
  <style type="text/css">
   <![CDATA[
    .fil0 {fill:black}
   ]]>
  </style>
 </defs>
 <g id="Capa_x0020_1">
  <metadata id="CorelCorpID_0Corel-Layer"/>
  <g id="_1703905585664">
   <path class="fil0" d="M3.12 1.59c0.21,0 0.51,-0.24 0.72,-0.34 1.85,-0.9 3.95,-0.74 5.64,0.38 0.15,0.1 0.27,0.19 0.41,0.29 0.62,0.47 1.18,1.24 1.52,1.92 0.51,1.02 0.56,1.62 0.56,2.78 0,1.05 -0.48,2.19 -1.01,2.96 -0.3,0.43 -0.58,0.71 -0.97,1.05 -0.8,0.72 -2.23,1.32 -3.36,1.32 -1.08,0 -1.78,-0.06 -2.74,-0.54 -0.32,-0.16 -0.56,-0.29 -0.84,-0.49 -0.12,-0.08 -0.26,-0.19 -0.37,-0.29 -0.17,-0.15 -0.39,-0.33 -0.52,-0.5 -0.06,-0.08 -0.09,-0.1 -0.16,-0.18 -0.75,-0.88 -1.3,-2.22 -1.3,-3.44 0,-1.33 0.12,-1.69 0.58,-2.73 0.13,-0.29 0.5,-0.69 0.2,-0.93 -0.38,-0.31 -0.63,0.28 -0.76,0.54 -0.54,1.07 -0.72,1.81 -0.72,3.13 0,1.19 0.52,2.6 1.16,3.45 0.06,0.08 0.09,0.13 0.15,0.21 0.06,0.08 0.12,0.14 0.18,0.22l1.21 1.11c0.17,0.11 0.29,0.19 0.46,0.3 0.17,0.1 0.35,0.18 0.53,0.27 1.76,0.88 4.12,0.7 5.79,-0.26l1.34 -1.02 0.71 -0.85c0.75,-1.14 1.14,-2.19 1.14,-3.73 0,-1.14 -0.35,-2.18 -0.82,-3.03 -0.18,-0.32 -0.4,-0.62 -0.62,-0.9l-0.38 -0.42c-0.3,-0.3 -0.5,-0.45 -0.83,-0.7 -1.68,-1.26 -4.07,-1.52 -6.03,-0.74 -0.28,0.11 -1.17,0.45 -1.19,0.79 -0.01,0.16 0.13,0.36 0.32,0.36z"/>
   <path class="fil0" d="M5.87 6.33c0,-0.62 0.93,-0.62 0.93,0 0,0.62 -0.93,0.62 -0.93,0zm0.99 -1.03c-0.17,-0.04 -0.3,-0.13 -0.53,-0.13 -0.23,0 -0.37,0.09 -0.53,0.13 -0.36,-0.24 -1.06,-1.19 -1.33,-1.19 -0.26,0 -0.36,0.11 -0.36,0.36 0,0.17 0.16,0.28 0.26,0.37 0.2,0.2 0.85,0.82 0.94,0.95 -0.07,0.29 -0.35,0.77 0.22,1.34 0.81,0.81 1.97,0.09 1.97,-0.81 0,-0.23 -0.09,-0.37 -0.13,-0.53 0.1,-0.16 0.43,-0.45 0.59,-0.6l1.21 -1.21c0.13,-0.13 0.56,-0.49 0.56,-0.67 0,-0.21 -0.16,-0.36 -0.36,-0.36 -0.2,0 -1.08,0.97 -1.27,1.15l-1.22 1.2z"/>
   <path class="fil0" d="M10.31 6.29c0,0.45 0.33,0.36 0.76,0.36 0.42,0 0.4,-0.66 0,-0.66 -0.31,0 -0.76,-0.08 -0.76,0.3z"/>
   <path class="fil0" d="M1.59 6.66c0.44,0 0.76,0.07 0.76,-0.36 0,-0.37 -0.46,-0.3 -0.76,-0.3 -0.42,0 -0.4,0.66 0,0.66z"/>
   <path class="fil0" d="M6 1.59c0,0.43 -0.08,0.76 0.36,0.76 0.37,0 0.3,-0.46 0.3,-0.76 0,-0.42 -0.66,-0.39 -0.66,0z"/>
   <path class="fil0" d="M6 10.6c0,0.48 -0.07,0.76 0.36,0.76 0.37,0 0.3,-0.43 0.3,-0.7 0,-0.53 -0.66,-0.43 -0.66,-0.07z"/>
   <path class="fil0" d="M1.76 2.02c0,0.56 0.66,0.51 0.66,0.03 0,-0.43 -0.66,-0.35 -0.66,-0.03z"/>
  </g>
 </g>
</svg>
